PathFileType	4	(X/Y/Z)	C:\Users\Basilio\Documents\Thesis Gigler\squatting_fais\c3dfiles\054\SLS_back_pre5\markers_experimental.trc
DataRate	CameraRate	NumFrames	NumMarkers	Units	OrigDataRate	OrigDataStartFrame	OrigNumFrames
200.000000	200.000000	4	61	mm	200.000000	555	1480
Frame#	Time	FHD			LBHD			RBHD			C7			T10			CLAV			LSHO			LUUPA			LMUPA			LDUPA			LLEP			LMEP			LRAD			LUL			LRFIN			RSHO			RUPA1			RMUPA			RDUPA			RLEP			RMEP			RRAD			RUL			RUFIN			LASI			RASI			USACR			LSACR			RSACR			LTHI1			LTHI2			LTHI3			LTHI4			LLFC			LMFC			LTIB1			LTIB2			LTIB3			LTIB4			LLMAL			LMMAL			LHEE			LMT1			LMT2			LMT5			RTHI			RTHI2			RTHI3			RTHI4			RLFC			RMFC			RTIB1			RTIB2			RTIB3			RTIB4			RLMAL			RMMAL			RHEE			RMT1			RMT2			RMT5			
		X1	Y1	Z1	X2	Y2	Z2	X3	Y3	Z3	X4	Y4	Z4	X5	Y5	Z5	X6	Y6	Z6	X7	Y7	Z7	X8	Y8	Z8	X9	Y9	Z9	X10	Y10	Z10	X11	Y11	Z11	X12	Y12	Z12	X13	Y13	Z13	X14	Y14	Z14	X15	Y15	Z15	X16	Y16	Z16	X17	Y17	Z17	X18	Y18	Z18	X19	Y19	Z19	X20	Y20	Z20	X21	Y21	Z21	X22	Y22	Z22	X23	Y23	Z23	X24	Y24	Z24	X25	Y25	Z25	X26	Y26	Z26	X27	Y27	Z27	X28	Y28	Z28	X29	Y29	Z29	X30	Y30	Z30	X31	Y31	Z31	X32	Y32	Z32	X33	Y33	Z33	X34	Y34	Z34	X35	Y35	Z35	X36	Y36	Z36	X37	Y37	Z37	X38	Y38	Z38	X39	Y39	Z39	X40	Y40	Z40	X41	Y41	Z41	X42	Y42	Z42	X43	Y43	Z43	X44	Y44	Z44	X45	Y45	Z45	X46	Y46	Z46	X47	Y47	Z47	X48	Y48	Z48	X49	Y49	Z49	X50	Y50	Z50	X51	Y51	Z51	X52	Y52	Z52	X53	Y53	Z53	X54	Y54	Z54	X55	Y55	Z55	X56	Y56	Z56	X57	Y57	Z57	X58	Y58	Z58	X59	Y59	Z59	X60	Y60	Z60	X61	Y61	Z61	

556	2.775	-56.01858520507814	1582.065185546875	-1098.180786132813	-225.3443298339844	1542.12451171875	-1165.246215820313	-237.4309387207032	1546.087768554688	-1025.590209960938	-285.0939025878907	1394.027221679688	-1074.611328125	-416.6165161132814	1099.037841796875	-1056.741455078125	-157.957275390625	1304.6318359375	-1085.3291015625	-217.1328735351563	1379.598876953125	-1225.2841796875	-92.31977844238283	1247.235595703125	-1360.63525390625	-54.54124450683595	1276.236572265625	-1346.888671875	-25.35884666442872	1230.925537109375	-1373.408569335938	33.95998001098634	1226.762329101563	-1372.640380859375	30.39244270324708	1163.563110351563	-1324.472290039063	279.2090454101563	1263.5419921875	-1263.389282226563	302.3691406250001	1217.47802734375	-1322.275390625	372.2963562011719	1280.451782226563	-1274.385375976563	-202.7488403320313	1387.15625	-943.3739013671877	-68.22505950927736	1264.509643554688	-800.426208496094	-29.53474807739259	1290.400390625	-812.7046508789065	-2.843804121017456	1242.363647460938	-786.3692626953127	42.73839950561524	1231.602294921875	-785.6315917968752	36.36095046997071	1172.553955078125	-837.128845214844	280.8809814453126	1297.071655273438	-933.4830322265627	299.5612182617188	1271.413696289063	-861.2185058593752	355.0886535644532	1336.206787109375	-934.0065917968752	-299.4357910156251	883.5466308593752	-1174.236450195313	-307.7876892089844	876.1156005859377	-925.4536743164065	-450.9139404296876	1023.035766601563	-1053.024169921875	-468.0682067871095	996.0149536132815	-1082.644897460938	-466.8547973632814	993.807556152344	-1024.85595703125	-319.6598510742188	684.4877319335939	-1255.107421875	-248.617416381836	637.7915039062501	-1245.94921875	-211.9787902832032	666.2704467773439	-1238.797119140625	-242.3597259521485	579.9083862304689	-1230.323364257813	-167.0561828613282	460.4409179687501	-1188.382080078125	-142.0123291015625	485.1584777832032	-1054.420532226563	-177.122543334961	313.3996887207032	-1106.678466796875	-240.5896911621094	277.8298339843751	-1158.834106445313	-207.3972167968751	267.8147888183594	-1129.360717773438	-245.3667907714844	209.0085754394532	-1082.09033203125	-355.0894470214844	104.4921188354492	-1106.200317382813	-322.3327636718751	132.4249572753907	-1016.282775878906	-426.989715576172	100.3208084106446	-1044.088012695313	-216.8527526855469	57.55897903442384	-1020.812316894531	-208.6419830322266	54.33363342285158	-1070.033447265625	-260.3245239257813	36.88175964355469	-1121.015869140625	-426.5867919921876	602.8541259765626	-832.5391235351565	-390.3797302246095	546.4890747070314	-824.8462524414065	-356.8570861816407	544.3463134765626	-827.7215576171877	-422.3996582031251	470.0294189453126	-842.2462158203127	-446.4056091308595	422.3712463378907	-851.9597778320315	-378.2770690917969	385.464080810547	-970.094177246094	-519.8465576171876	347.4039001464844	-890.595886230469	-605.9451904296876	410.9652099609376	-882.7678833007815	-604.9065551757814	366.3693542480469	-896.7515869140627	-641.4032592773439	352.0476074218751	-939.5872802734377	-816.414489746094	401.6846618652345	-978.5781250000002	-767.1934204101564	366.7705078125001	-1053.617919921875	-811.0012817382815	468.7779846191407	-1037.95263671875	-858.0407714843752	255.8770294189454	-1084.43408203125	-876.691833496094	250.7308654785157	-1040.305908203125	-908.820007324219	299.6149902343751	-1003.361572265625	
557	2.78	-55.47346878051759	1580.642944335938	-1098.32470703125	-224.6131439208985	1540.696655273438	-1165.160400390625	-236.8149414062501	1544.6025390625	-1025.531127929688	-284.4961547851563	1392.741333007813	-1074.556640625	-416.3859863281251	1097.970336914063	-1056.742797851563	-157.4898986816407	1303.075927734375	-1085.33642578125	-216.5749206542969	1378.145385742188	-1225.149169921875	-91.69829559326173	1245.861083984375	-1360.622680664063	-54.27375411987306	1274.691528320313	-1346.8076171875	-24.75196647644044	1229.54541015625	-1373.161254882813	34.60548782348634	1225.398071289063	-1372.74365234375	31.04736518859864	1162.318603515625	-1324.949829101563	279.8193359375001	1262.1806640625	-1263.174072265625	303.1668701171876	1216.373657226563	-1322.076293945313	372.5545043945313	1279.1826171875	-1274.140625	-202.0153961181641	1385.7041015625	-943.3840942382815	-67.59518432617189	1262.9912109375	-800.3291015625002	-29.0900993347168	1289.03515625	-812.5420532226565	-2.363219022750855	1241.000610351563	-786.265075683594	43.53060150146485	1230.102416992188	-785.7579345703127	37.06307220458985	1171.191284179688	-837.0755615234377	281.4368591308594	1295.460571289063	-933.5412597656252	300.0541687011719	1269.846923828125	-861.297302246094	355.8103637695313	1334.76611328125	-934.087097167969	-299.4639282226563	882.329772949219	-1174.467041015625	-307.8443298339844	874.8989257812502	-925.5406494140627	-450.772674560547	1021.892028808594	-1052.991577148438	-468.2345581054689	995.109069824219	-1082.497192382813	-466.8428649902345	992.714538574219	-1024.639038085938	-319.7123413085938	683.8486938476564	-1255.045654296875	-248.5987243652344	637.2146606445314	-1246.01416015625	-212.0766143798829	665.9262084960939	-1238.77490234375	-241.9686584472657	579.4297485351564	-1230.428466796875	-166.5655059814453	460.2002563476564	-1188.4921875	-141.6567077636719	484.9871215820314	-1054.321166992188	-176.9241638183594	313.2694091796876	-1106.606811523438	-239.7227172851563	277.5620117187501	-1158.554321289063	-207.1177978515626	267.6112060546876	-1129.316772460938	-245.2016906738282	208.9642639160157	-1081.997192382813	-355.1289672851563	104.4631652832032	-1106.176391601563	-322.2833251953126	132.4143981933594	-1016.275939941406	-427.1542968750001	100.4900665283203	-1044.012329101563	-216.8170928955079	57.51093673706056	-1020.863220214844	-208.6363067626954	54.31657028198244	-1070.037841796875	-260.3150939941407	36.88530731201173	-1121.007934570313	-426.8985900878907	601.7136840820314	-832.661315917969	-390.7304687500001	545.1718750000001	-824.9985351562502	-357.3107299804688	543.1871337890626	-827.6153564453127	-422.9338378906251	468.8528747558595	-842.3455810546877	-446.8889160156251	421.3401794433595	-852.0930786132815	-378.6155700683594	384.2463378906251	-970.1077880859377	-520.3425292968751	346.4472656250001	-890.677185058594	-606.5208129882814	410.1534423828126	-882.8905029296877	-605.5888061523439	365.5715637207032	-896.767272949219	-642.1127319335939	351.0762023925782	-939.5803833007815	-817.0792236328127	401.2620239257814	-978.6328125000002	-767.8256225585939	366.3188476562501	-1053.72119140625	-811.532653808594	468.4520568847657	-1037.881958007813	-858.6907958984377	255.7302551269532	-1084.69970703125	-877.2546386718752	250.1751098632813	-1040.531616210938	-909.407165527344	299.1845092773438	-1003.53564453125	
558	2.785	-54.77736282348634	1579.095703125	-1098.412475585938	-224.2035369873047	1539.2177734375	-1165.23583984375	-236.3259887695313	1543.015869140625	-1025.46484375	-283.8661499023438	1391.384521484375	-1074.555786132813	-416.2543029785157	1096.869506835938	-1056.6357421875	-157.1571960449219	1301.622314453125	-1085.430541992188	-215.8811798095704	1376.67626953125	-1225.133666992188	-91.14633941650392	1244.353271484375	-1360.403076171875	-53.59975051879884	1273.47705078125	-1346.721557617188	-24.3341178894043	1228.352416992188	-1373.220703125	35.1889762878418	1224.067260742188	-1372.640502929688	31.5478801727295	1161.09130859375	-1324.422607421875	279.9656066894532	1260.796630859375	-1263.006713867188	303.5931091308594	1215.03662109375	-1321.945922851563	373.3919372558594	1277.806274414063	-1273.858276367188	-201.1606903076172	1384.23779296875	-943.4047851562502	-66.95527648925783	1261.646484375	-800.3372802734377	-28.66342544555665	1287.628784179688	-812.5565185546877	-1.736323356628418	1239.458374023438	-786.310241699219	44.21057510375977	1228.65576171875	-785.7768554687502	37.54266738891602	1169.68408203125	-837.197937011719	283.1382446289063	1293.893920898438	-934.5406494140627	300.5928955078126	1268.454223632813	-861.4168090820315	356.6642456054688	1333.190673828125	-934.2963867187502	-299.6427612304688	881.274597167969	-1174.655639648438	-308.0722961425782	873.650329589844	-925.5766601562502	-450.810028076172	1020.833984375	-1052.827270507813	-468.4104614257814	994.103698730469	-1082.335083007813	-466.8648986816407	991.6831054687502	-1024.58251953125	-319.7349548339844	683.0658569335939	-1255.097534179688	-248.4578552246094	636.5550537109376	-1246.11181640625	-212.097640991211	665.5024414062501	-1238.778442382813	-242.1898345947266	578.8807373046876	-1230.065185546875	-166.0929107666016	459.9161376953126	-1188.4970703125	-141.0501861572266	484.6921997070314	-1054.444458007813	-176.6190948486328	313.0543823242188	-1106.499389648438	-239.5760803222657	277.4328918457032	-1158.580688476563	-206.8621826171876	267.3083190917969	-1129.330932617188	-245.0470581054688	208.9251861572266	-1082.003295898438	-355.0544738769532	104.4970245361328	-1106.196044921875	-322.2567443847657	132.4487457275391	-1016.248352050781	-427.1534729003907	100.5371475219727	-1043.96826171875	-216.8236236572266	57.4367141723633	-1020.825744628906	-208.6682128906251	54.29833602905275	-1070.068969726563	-260.3064575195313	36.88476943969727	-1121.019409179688	-427.2557067871095	600.5083618164064	-832.737976074219	-391.1841735839845	544.0317382812501	-825.0337524414065	-357.5826110839844	541.8270874023439	-827.8641357421877	-423.2110900878907	467.7789611816407	-842.4490966796877	-447.2404785156251	420.2199707031251	-852.0259399414065	-379.3011779785157	383.0616149902344	-970.2649536132815	-520.9672851562501	345.5765380859376	-890.673522949219	-607.0771484375001	409.2107849121095	-882.8684692382815	-606.1182250976564	364.7682189941407	-896.9099121093752	-642.5680541992189	350.3234863281251	-939.7468872070315	-817.7810058593752	400.628387451172	-978.5303955078127	-768.4699707031252	365.8592529296876	-1053.72802734375	-812.0362548828127	468.0786437988282	-1037.855224609375	-859.7390747070315	255.5497589111329	-1085.484252929688	-878.1267700195315	249.9867095947266	-1040.408447265625	-910.142761230469	298.6693115234376	-1003.630310058594	
559	2.79	-54.02229309082033	1577.5810546875	-1098.471557617188	-223.6049346923829	1537.679077148438	-1165.112060546875	-235.4682312011719	1541.634155273438	-1025.542724609375	-283.2816772460938	1389.9560546875	-1074.384643554688	-416.0445861816407	1095.732299804688	-1056.6357421875	-156.3296051025391	1300.129028320313	-1085.278686523438	-215.3736267089844	1375.338012695313	-1224.9892578125	-90.56379699707033	1243.057006835938	-1360.471557617188	-53.2089080810547	1272.029907226563	-1346.682250976563	-23.83536148071289	1226.888305664063	-1373.102661132813	35.6530876159668	1222.8095703125	-1372.669799804688	32.11872482299805	1159.316162109375	-1324.39404296875	280.4460754394532	1259.471313476563	-1262.873046875	304.1327819824219	1213.657592773438	-1321.728637695313	373.7484436035157	1276.352416992188	-1273.614135742188	-200.6232910156251	1382.964477539063	-943.3040771484377	-66.3572235107422	1260.110229492188	-800.3562622070315	-28.07489585876466	1286.083740234375	-812.4605712890627	-1.094148993492127	1237.89306640625	-786.390808105469	44.66461944580079	1226.932006835938	-785.7793579101565	38.34095764160157	1168.2578125	-837.240661621094	282.9058532714844	1292.521850585938	-933.8594970703127	301.4212341308594	1266.850830078125	-861.5672607421877	357.0980834960938	1331.64794921875	-934.3296508789065	-299.8410949707032	880.0776367187502	-1174.861572265625	-308.0842285156251	872.325134277344	-925.695251464844	-450.8352050781251	1019.798950195313	-1052.731201171875	-468.8424377441407	993.205749511719	-1082.08935546875	-466.670867919922	990.5833740234377	-1024.444702148438	-319.8069152832032	682.1818237304689	-1255.072387695313	-248.5764312744141	636.2643432617189	-1246.11962890625	-212.0842285156251	665.0725708007814	-1238.823974609375	-241.9220886230469	578.3002319335939	-1230.165405273438	-165.5814208984375	459.6577148437501	-1188.504760742188	-140.6477355957032	484.4693908691407	-1054.662475585938	-176.1858520507813	312.6819458007813	-1106.465942382813	-239.2296600341797	277.2215270996094	-1158.568969726563	-206.7142486572266	267.1262207031251	-1129.385009765625	-244.8377838134766	208.7672424316407	-1081.900146484375	-355.0992126464844	104.5307006835938	-1106.203369140625	-322.2474060058594	132.4570922851563	-1016.270935058594	-426.9791870117189	100.3949508666992	-1044.074462890625	-216.8026123046876	57.44369888305665	-1020.849243164063	-208.6695098876954	54.30126571655275	-1070.0751953125	-260.2660217285157	36.8803825378418	-1121.066162109375	-427.6330566406251	599.4143066406251	-832.722106933594	-391.5007324218751	542.8858642578126	-825.020690917969	-358.0972900390626	540.6611328125001	-827.8756103515627	-423.5677490234376	466.6108398437501	-842.5197753906252	-447.5046997070314	418.9624633789064	-852.3970336914065	-379.4476623535157	382.1396789550782	-970.5454711914065	-521.4916381835939	344.3840942382813	-890.8279418945315	-607.7744750976564	408.2687988281251	-882.815368652344	-606.7006835937501	363.8367614746094	-897.0490722656252	-642.9633789062501	349.5755004882813	-939.9990234375002	-818.3596801757815	400.0864562988282	-978.601013183594	-769.0735473632815	365.3409423828126	-1053.862182617188	-812.4381103515627	467.6784667968751	-1037.854370117188	-860.473083496094	254.9768676757813	-1085.628784179688	-878.950378417969	249.7062377929688	-1040.660278320313	-910.7896728515627	298.4006347656251	-1003.714477539063	
